<?xml version="1.0" encoding="utf-8" ?><svg xmlns="http://www.w3.org/2000/svg" xmlns:xlink="http://www.w3.org/1999/xlink" width="691" height="271" viewBox="0 0 691 271"><path fill="#FEFEFE" d="M272.69 114.175C283.208 113.258 290.062 115.876 297.277 123.428L297.655 123.195C297.003 120.127 297.321 117.503 297.445 114.357C302.228 114.435 310.631 114.731 315.085 114.106L315.154 182.002L300.788 182.021C300.206 180.361 298.492 173.623 297.407 172.913L296.717 173.479C293.072 177.297 285.27 182.255 280.039 182.883C262.966 184.934 247.198 172.918 244.541 156.151C241.108 134.487 250.73 117.941 272.69 114.175ZM280.842 167.15C291.108 166.283 298.733 157.265 297.884 146.995C297.036 136.725 288.033 129.082 277.764 129.913C267.47 130.746 259.805 139.778 260.656 150.073C261.507 160.369 270.55 168.019 280.842 167.15Z"/><path fill="#FEFEFE" d="M358.007 114.288C376.931 111.673 394.38 124.927 396.943 143.863C399.505 162.798 386.207 180.215 367.269 182.727C348.404 185.228 331.073 171.989 328.52 153.126C325.967 134.264 339.156 116.892 358.007 114.288Z"/><path fill="#FEFEFE" d="M184.173 88.589C184.863 88.4627 184.993 88.5075 185.7 88.5975C186.484 90.077 186.09 120.876 186.053 124.713C194.581 112.344 213.478 110.991 224.545 120.754C234.063 129.149 232.866 142.347 232.948 153.788C233.014 163.06 232.657 172.689 233.124 181.997L215.059 181.987C214.604 169.8 215.024 156.548 214.845 144.178C214.329 141.018 213.836 137.761 211.427 135.416C206.669 130.718 196.241 131.107 191.651 135.872C186.731 140.98 186.169 148.969 186.128 155.705C186.075 164.467 186.119 173.24 186.163 182.005L167.972 182.014C167.485 175.33 167.572 167.568 167.569 160.834L167.565 131.989L167.55 106.477C167.55 100.828 167.411 94.2168 167.932 88.659C173.078 88.4621 178.767 88.765 184.173 88.589Z"/><path fill="#FEFEFE" d="M121.998 92.9608C136.787 93.1706 146.289 98.1646 156.395 108.48C152.539 112.633 149.052 117.719 145.208 121.707C137.539 115.491 133.54 112.233 122.86 112.059C115.571 112.027 107.969 114.35 102.83 119.711C86.218 137.038 98.1 165.642 122.501 165.104C133.768 164.856 138.874 161.375 146.383 153.665L148.8 156.137C151.657 159.529 155.354 163.107 158.437 166.553C158.143 166.886 157.845 167.215 157.543 167.541C139.491 187.08 112.169 190.249 91.6991 172.134C65.537 148.981 75.6808 103.951 109.468 94.7702C113.833 93.5841 117.485 93.114 121.998 92.9608Z"/><path fill="#FEFEFE" d="M415.66 87.9015C420.56 87.6721 428.038 87.9378 433.103 87.9771L433.145 115.014C438.794 114.906 444.445 114.89 450.095 114.966C450.048 119.612 450.121 124.351 450.146 129.005L432.965 128.991C433.502 139.11 432.678 150.11 433.244 160.298C433.293 161.177 433.695 163.446 434.317 163.946C436.668 165.836 443.004 164.667 446.013 164.349C446.108 167.53 446.863 172.472 447.161 175.912C447.132 177 447.653 180.445 447.815 181.692C438.738 183.407 428.213 184.233 420.975 177.057C413.781 169.925 414.929 156.7 414.945 147.275L414.992 128.98L405.888 129.011C405.801 124.38 405.668 119.565 405.973 114.956C407.904 114.766 412.852 114.89 415.001 114.895L414.932 96.3926C414.929 94.5253 414.566 88.999 415.66 87.9015Z"/><path fill="#FEFEFE" d="M587.127 114.188C595.953 113.116 603.757 117.167 611.008 121.397C608.92 124.418 603.078 133.008 600.741 135.455C596.446 132.647 588.316 128.727 584.216 132.982C579.787 137.577 588.794 139.994 591.041 140.723C597.389 142.784 605.571 144.28 610.308 148.992C617.538 156.319 616.074 169.737 608.697 176.44C602.449 182.116 594.819 183.074 586.782 182.922C576.826 181.779 573.074 179.171 564.77 173.781C567.914 169.447 571.666 164.276 575.299 160.328C580.614 163.414 590.644 169.317 596.941 163.96C597.867 163.173 597.931 162.601 597.984 161.462C595.982 156.847 576.737 155.111 570.982 147.86C564.517 139.714 564.297 132.128 570.071 123.3C573.607 117.895 581.29 114.987 587.127 114.188Z"/><path fill="#FEFEFE" d="M525.427 114.182C526.739 114.052 528.056 113.977 529.375 113.956C538.869 113.818 547.678 117.6 554.449 124.184C551.143 128.554 547.163 132.544 543.766 137.177C539.227 133.956 536.991 131.936 531.265 131.352C516.451 129.84 507.392 148.01 517.243 159.165C520.229 162.608 524.495 164.677 529.047 164.889C535.561 165.235 539.909 161.817 544.475 157.68C546.407 159.255 549.074 162.004 550.926 163.803L556.691 169.568C550.903 175.293 543.816 180.312 535.604 181.557C526.57 182.83 516.756 181.214 509.381 175.437C484.76 156.153 494.344 118.815 525.427 114.182Z"/><path fill="#FEFEFE" d="M462.121 114.327C466.078 114.997 476.009 114.882 480.005 114.424C480.513 136.684 479.972 159.651 480.153 182.015C474.342 181.87 467.929 181.999 462.072 181.998C461.473 165.878 462.18 149.233 461.919 133.061C461.824 127.24 461.626 120.045 462.121 114.327Z"/><path fill="#FEFEFE" d="M462.111 88.2522C465.881 88.9949 476.093 88.741 480.025 88.4079L480.165 106.012L462.062 106.017C461.892 100.572 461.711 93.6468 462.111 88.2522Z"/></svg>